<svg width="223" height="324" xmlns="http://www.w3.org/2000/svg" xmlns:xlink="http://www.w3.org/1999/xlink" xml:space="preserve" overflow="hidden"><defs><clipPath id="clip0"><rect x="0" y="0" width="223" height="324"/></clipPath></defs><g clip-path="url(#clip0)"><path d="M222.666 314.435C222.666 319.475 218.546 323.602 213.496 323.602L9.49037 323.602C4.45226 323.602 0.333659 319.475 0.333659 314.435L0.333659 9.56693C0.333659 4.52555 4.45226 0.397838 9.49037 0.397838L213.496 0.397838C218.546 0.397838 222.666 4.52555 222.666 9.56693L222.666 314.435Z" stroke="#000000" stroke-width="0.667317" fill="#C55A11"/><text fill="#C55A11" font-family="Arial,Arial_MSFontService,sans-serif" font-weight="400" font-size="32" transform="matrix(1.33463 0 0 1.33463 11.0915 37)">3</text><path d="M27.6147 58.4406C27.6147 58.4406 32.3239 54.6733 32.3239 49.4506 32.3239 46.3932 29.6094 41.3172 23.3339 41.3172 17.0583 41.3172 14.3439 46.3951 14.3439 49.4506 14.3439 54.6733 19.053 58.4406 19.053 58.4406 13.8224 54.366 4.49728 57.1479 4.49728 65.2912 4.49728 69.3679 7.82838 73.8529 13.059 73.8529 19.3346 73.8529 22.049 67.0024 22.049 67.0024 22.049 67.0024 22.8461 74.8106 18.1964 78.9904L28.4713 78.9904C23.8216 74.8126 24.6187 67.0024 24.6187 67.0024 24.6187 67.0024 27.3332 73.8529 33.6087 73.8529 38.8413 73.8529 42.1705 69.3659 42.1705 65.2912 42.1705 57.1479 32.8454 54.366 27.6147 58.4406Z" fill="#C55A11"/><text fill="#C55A11" font-family="Arial,Arial_MSFontService,sans-serif" font-weight="400" font-size="32" transform="matrix(-1.33463 0 0 -1.33463 212.025 286)">3</text><path d="M195.502 265.31C195.502 265.31 190.793 269.077 190.793 274.3 190.793 277.357 193.507 282.433 199.783 282.433 206.058 282.433 208.773 277.355 208.773 274.3 208.773 269.077 204.064 265.31 204.064 265.31 209.294 269.385 218.619 266.603 218.619 258.459 218.619 254.383 215.288 249.898 210.058 249.898 203.782 249.898 201.068 256.748 201.068 256.748 201.068 256.748 200.27 248.94 204.92 244.76L194.645 244.76C199.295 248.938 198.498 256.748 198.498 256.748 198.498 256.748 195.783 249.898 189.508 249.898 184.275 249.898 180.946 254.385 180.946 258.459 180.946 266.603 190.271 269.385 195.502 265.31Z" fill="#C55A11"/><path d="M119.547 63.4592C119.547 63.4592 127.511 57.0878 127.511 48.255 127.511 43.0841 122.921 34.4994 112.307 34.4994 101.694 34.4994 97.1031 43.0874 97.1031 48.255 97.1031 57.0878 105.067 63.4592 105.067 63.4592 96.2211 56.568 80.4502 61.2728 80.4502 75.0451 80.4502 81.9396 86.0839 89.525 94.9301 89.525 105.544 89.525 110.134 77.9391 110.134 77.9391 110.134 77.9391 111.482 91.1447 103.619 98.2136L120.996 98.2136C113.132 91.148 114.48 77.9391 114.48 77.9391 114.48 77.9391 119.071 89.525 129.684 89.525 138.534 89.525 144.164 81.9363 144.164 75.0451 144.164 61.2728 128.393 56.568 119.547 63.4592Z" fill="#C55A11"/><path d="M105.127 261.978C105.127 261.978 97.163 268.349 97.163 277.182 97.163 282.353 101.754 290.938 112.367 290.938 122.981 290.938 127.571 282.35 127.571 277.182 127.571 268.349 119.607 261.978 119.607 261.978 128.453 268.869 144.224 264.164 144.224 250.392 144.224 243.498 138.591 235.912 129.744 235.912 119.131 235.912 114.54 247.498 114.54 247.498 114.54 247.498 113.192 234.293 121.056 227.224L103.679 227.224C111.542 234.289 110.194 247.498 110.194 247.498 110.194 247.498 105.603 235.912 94.99 235.912 86.1404 235.912 80.5101 243.501 80.5101 250.392 80.5101 264.164 96.281 268.869 105.127 261.978Z" fill="#C55A11"/><path d="M119.547 156.484C119.547 156.484 127.511 150.113 127.511 141.28 127.511 136.109 122.921 127.525 112.307 127.525 101.694 127.525 97.1031 136.113 97.1031 141.28 97.1031 150.113 105.067 156.484 105.067 156.484 96.2211 149.593 80.4502 154.298 80.4502 168.07 80.4502 174.965 86.0839 182.55 94.9301 182.55 105.544 182.55 110.134 170.964 110.134 170.964 110.134 170.964 111.482 184.17 103.619 191.239L120.996 191.239C113.132 184.173 114.48 170.964 114.48 170.964 114.48 170.964 119.071 182.55 129.684 182.55 138.534 182.55 144.164 174.961 144.164 168.07 144.164 154.298 128.393 149.593 119.547 156.484Z" fill="#C55A11"/></g></svg>